<svg id="Capa_1" data-name="Capa 1" xmlns="http://www.w3.org/2000/svg" viewBox="0 0 400 341.43"><title>item-interconnections_web</title><path d="M330.17,231.06a70.18,70.18,0,0,0-15,1.64l-55-98.1a69.83,69.83,0,1,0-120.28,0l-55,98.1A69.83,69.83,0,1,0,138,315.93H262A69.83,69.83,0,1,0,330.17,231.06ZM198,57h12.46v84.15H194.79V74.05l-13,7-3.43-13.5ZM97,343H42.67v-9.42l9-8.71c20.16-19.2,28.6-29,28.71-39.78,0-6.07-2.36-13.34-13.61-13.34-7,0-12.65,3.88-15.43,6.19l-2,1.71-5.12-11.33,1.16-1a36.58,36.58,0,0,1,23.6-8.47c18.05,0,26.14,12.51,26.14,24.92,0,15.77-11.51,28.08-27.77,43.75l-2.8,2.58H97V343h0Zm164.55-55H138.46a69.79,69.79,0,0,0-28-43.86l49.29-88a69.73,69.73,0,0,0,80.44,0l49.29,88A69.8,69.8,0,0,0,261.54,288Zm64.71,55.63c-9.56,0-17.6-3-21.59-5.66l-1.33-.86L307.62,325l2.15,1.37A33.62,33.62,0,0,0,326.13,331c5.41,0,9.57-1.42,12.34-4.25a12.5,12.5,0,0,0,3.46-9c-0.11-10.16-9.55-13.78-18.34-13.78h-8V292h8c6.25,0,15.55-3,15.55-11.3,0-6.27-4.3-9.86-11.8-9.86a27,27,0,0,0-14.58,4.84l-2.17,1.56-4.2-11.68,1.21-.9c4.37-3.21,12.81-6.45,21.8-6.45,14.16,0,21.8,7.28,23.93,15.71A21,21,0,0,1,354,279c0,7.77-4,14.23-11.17,18.28C351.57,300.78,357,308.5,357,318,357,330.74,347.49,343.63,326.25,343.63Z" transform="translate(0 -29.28)"/></svg>