<?xml version="1.0" encoding="utf-8"?>
<!-- Generator: Adobe Illustrator 16.0.0, SVG Export Plug-In . SVG Version: 6.00 Build 0)  -->
<!DOCTYPE svg PUBLIC "-//W3C//DTD SVG 1.1//EN" "http://www.w3.org/Graphics/SVG/1.1/DTD/svg11.dtd">
<svg version="1.1" id="Layer_1" xmlns="http://www.w3.org/2000/svg" xmlns:xlink="http://www.w3.org/1999/xlink" x="0px" y="0px"
	 width="168px" height="168px" viewBox="0 0 168 168" enable-background="new 0 0 168 168" xml:space="preserve">
<g>
	<defs>
		<rect id="SVGID_1_" x="-0.173" y="0.186" width="167.645" height="167.714"/>
	</defs>
	<clipPath id="SVGID_2_">
		<use xlink:href="#SVGID_1_"  overflow="visible"/>
	</clipPath>
	<g clip-path="url(#SVGID_2_)">
		<defs>
			<rect id="SVGID_3_" x="-0.242" y="-0.1" width="168.283" height="168"/>
		</defs>
		<clipPath id="SVGID_4_">
			<use xlink:href="#SVGID_3_"  overflow="visible"/>
		</clipPath>
		<rect x="-0.173" y="0.186" clip-path="url(#SVGID_4_)" fill="#E2001A" width="167.645" height="167.714"/>
	</g>
</g>
<g>
	<defs>
		<rect id="SVGID_5_" x="-0.242" y="-0.1" width="168.283" height="168"/>
	</defs>
	<clipPath id="SVGID_6_">
		<use xlink:href="#SVGID_5_"  overflow="visible"/>
	</clipPath>
	<rect x="19.813" y="6.674" clip-path="url(#SVGID_6_)" fill="#FFFFFF" width="11.01" height="35.785"/>
	<rect x="7.427" y="19.062" clip-path="url(#SVGID_6_)" fill="#FFFFFF" width="35.785" height="11.009"/>
	<rect x="19.813" y="108.659" clip-path="url(#SVGID_6_)" fill="#FFFFFF" width="11.01" height="19.662"/>
	<rect x="7.427" y="121.045" clip-path="url(#SVGID_6_)" fill="#FFFFFF" width="35.785" height="11.011"/>
	<rect x="19.813" y="143.46" clip-path="url(#SVGID_6_)" fill="#FFFFFF" width="11.01" height="19.662"/>
	<rect x="7.427" y="139.723" clip-path="url(#SVGID_6_)" fill="#FFFFFF" width="35.785" height="11.011"/>
	<polyline clip-path="url(#SVGID_6_)" fill="#FFFFFF" points="41.138,41.99 41.138,35.702 43.873,35.702 43.873,51.65 41.138,51.65 
		41.138,44.787 39.101,44.787 39.101,51.65 36.365,51.65 36.365,35.702 39.101,35.702 39.101,41.99 41.138,41.99 	"/>
	<path clip-path="url(#SVGID_6_)" fill="#FFFFFF" d="M50.563,35.702l3.015,15.948h-2.756l-0.54-3.444h-2.636l-0.54,3.444h-2.435
		l3.055-15.948H50.563 M49.246,41.368c-0.18-0.956-0.22-1.458-0.28-2.678c-0.12,1.053-0.2,1.77-0.32,2.536l-0.718,4.399h2.057
		L49.246,41.368z"/>
	<path clip-path="url(#SVGID_6_)" fill="#FFFFFF" d="M54.398,35.702h2.676l2.177,7.317c0.179,0.646,0.339,1.434,0.639,3.132
		c-0.1-1.722-0.199-3.897-0.199-4.829v-5.62h2.216V51.65h-2.216l-2.517-8.154c-0.279-0.884-0.5-1.841-0.779-3.275
		c0.121,1.84,0.221,4.017,0.221,4.71v6.718h-2.217V35.702"/>
	<path clip-path="url(#SVGID_6_)" fill="#FFFFFF" d="M63.924,35.702h2.557c2.036,0,2.936,0.263,3.813,1.1
		c1.238,1.22,1.878,3.516,1.878,6.671c0,3.443-0.68,5.858-2.018,7.172c-0.718,0.693-1.518,1.004-2.656,1.004h-3.574V35.702
		 M67.398,48.853c0.679,0,1.119-0.216,1.358-0.646c0.339-0.669,0.519-2.151,0.519-4.495c0-2.104-0.18-3.705-0.48-4.422
		c-0.259-0.55-0.697-0.813-1.397-0.813h-0.798v10.377H67.398z"/>
	<polyline clip-path="url(#SVGID_6_)" fill="#FFFFFF" points="76.526,42.206 79.761,42.206 79.761,44.86 76.526,44.86 
		76.526,48.853 80.739,48.853 80.739,51.65 73.79,51.65 73.79,35.702 80.739,35.702 80.739,38.499 76.526,38.499 76.526,42.206 	"/>
	<polyline clip-path="url(#SVGID_6_)" fill="#FFFFFF" points="81.958,35.702 84.693,35.702 84.693,48.708 88.088,48.708 
		88.088,51.65 81.958,51.65 81.958,35.702 	"/>
	<path clip-path="url(#SVGID_6_)" fill="#FFFFFF" d="M93.8,40.197c-0.259-1.267-0.739-1.864-1.498-1.864
		c-0.719,0-1.158,0.598-1.158,1.577c0,0.55,0.16,0.98,0.498,1.292c0.341,0.334,0.341,0.334,1.859,1.172
		c1.797,1.004,2.555,2.32,2.555,4.471c0,3.084-1.558,5.044-4.032,5.044c-2.197,0-3.476-1.386-3.915-4.304l2.177-0.909
		c0.32,1.722,0.798,2.344,1.758,2.344c0.818,0,1.337-0.67,1.337-1.674c0-0.501-0.159-0.98-0.418-1.267
		c-0.261-0.287-0.261-0.287-1.839-1.219c-1.737-1.028-2.535-2.463-2.535-4.542c0-2.775,1.559-4.854,3.634-4.854
		c1.838,0,3.017,1.195,3.636,3.683L93.8,40.197"/>
	<path clip-path="url(#SVGID_6_)" fill="#FFFFFF" d="M97.277,35.702h2.734v5.213c0,0.407,0,0.407-0.06,1.291
		c0,0.096-0.02,0.334-0.039,0.597c0.18-0.812,0.398-1.577,0.499-1.817l1.996-5.284h2.676l-2.695,5.905l3.096,10.043h-2.817
		l-1.877-7.197l-0.778,2.128v5.069h-2.734V35.702"/>
	<path clip-path="url(#SVGID_6_)" fill="#FFFFFF" d="M111.136,35.702l3.014,15.948h-2.755l-0.54-3.444h-2.635l-0.539,3.444h-2.438
		l3.056-15.948H111.136 M109.818,41.368c-0.182-0.956-0.221-1.458-0.28-2.678c-0.12,1.053-0.199,1.77-0.319,2.536l-0.719,4.399
		h2.057L109.818,41.368z"/>
	<path clip-path="url(#SVGID_6_)" fill="#FFFFFF" d="M114.97,35.702h3.754l1.02,6.718c0.199,1.34,0.338,2.87,0.418,4.567
		c0.081-1.435,0.3-3.372,0.559-4.901l1.139-6.384h3.675V51.65h-2.616v-9.085c0-0.958,0-1.196,0.14-4.83
		c-0.379,3.275-0.519,4.304-0.58,4.686l-1.616,9.23h-1.717l-1.559-9.373c-0.158-0.956-0.259-1.889-0.519-4.543
		c0.02,0.67,0.02,1.124,0.02,1.291l0.04,1.673c0.02,0.574,0.02,1.076,0.02,1.482v9.469h-2.176V35.702"/>
	<path clip-path="url(#SVGID_6_)" fill="#FFFFFF" d="M127.551,35.702h3.755l1.019,6.718c0.199,1.34,0.339,2.87,0.418,4.567
		c0.081-1.435,0.301-3.372,0.56-4.901l1.14-6.384h3.673V51.65H135.5v-9.085c0-0.958,0-1.196,0.14-4.83
		c-0.378,3.275-0.52,4.304-0.58,4.686l-1.617,9.23h-1.717l-1.558-9.373c-0.16-0.956-0.26-1.889-0.519-4.543
		c0.02,0.67,0.02,1.124,0.02,1.291l0.04,1.673c0.02,0.574,0.02,1.076,0.02,1.482v9.469h-2.177V35.702"/>
	<polyline clip-path="url(#SVGID_6_)" fill="#FFFFFF" points="142.87,42.206 146.104,42.206 146.104,44.86 142.87,44.86 
		142.87,48.853 147.083,48.853 147.083,51.65 140.134,51.65 140.134,35.702 147.083,35.702 147.083,38.499 142.87,38.499 
		142.87,42.206 	"/>
	<path clip-path="url(#SVGID_6_)" fill="#FFFFFF" d="M148.302,35.702h3.435c1.798,0,2.437,0.215,3.095,1.028
		c0.738,0.933,1.099,2.153,1.099,3.706c0,2.152-0.499,3.372-1.737,4.304l2.017,6.91h-2.875l-1.519-6.265h-0.837v6.265h-2.677V35.702
		 M151.737,42.755c0.979,0,1.477-0.765,1.477-2.32c0-1.481-0.498-2.223-1.477-2.223h-0.758v4.542H151.737z"/>
	<path clip-path="url(#SVGID_6_)" fill="#FFFFFF" d="M41.057,61.528c-0.259-1.267-0.738-1.865-1.497-1.865
		c-0.719,0-1.159,0.598-1.159,1.578c0,0.55,0.159,0.98,0.5,1.291c0.339,0.335,0.339,0.335,1.857,1.172
		c1.796,1.004,2.555,2.32,2.555,4.471c0,3.084-1.558,5.044-4.034,5.044c-2.196,0-3.474-1.386-3.914-4.304l2.178-0.909
		c0.318,1.723,0.798,2.344,1.756,2.344c0.819,0,1.339-0.67,1.339-1.674c0-0.502-0.161-0.98-0.42-1.268
		c-0.259-0.287-0.259-0.287-1.836-1.219c-1.738-1.028-2.537-2.463-2.537-4.543c0-2.774,1.558-4.854,3.634-4.854
		c1.838,0,3.015,1.196,3.634,3.683L41.057,61.528"/>
	<path clip-path="url(#SVGID_6_)" fill="#FFFFFF" d="M50.004,63.178c-0.08-2.558-0.479-3.54-1.517-3.54
		c-1.139,0-1.478,1.316-1.478,5.62c0,3.944,0.319,5.117,1.438,5.117c1.018,0,1.378-0.717,1.557-3.18l2.317,0.214
		c-0.101,1.746-0.319,2.799-0.78,3.73c-0.718,1.435-1.716,2.08-3.174,2.08c-2.836,0-4.253-2.726-4.253-8.177
		c0-5.331,1.537-8.249,4.353-8.249c1.598,0,2.775,0.885,3.375,2.511c0.319,0.884,0.479,1.889,0.578,3.633L50.004,63.178"/>
	<polyline clip-path="url(#SVGID_6_)" fill="#FFFFFF" points="58.491,63.321 58.491,57.032 61.228,57.032 61.228,72.98 
		58.491,72.98 58.491,66.118 56.455,66.118 56.455,72.98 53.719,72.98 53.719,57.032 56.455,57.032 56.455,63.321 58.491,63.321 	
		"/>
	<path clip-path="url(#SVGID_6_)" fill="#FFFFFF" d="M62.227,57.032h2.896l0.739,7.555c0.12,1.292,0.2,2.32,0.259,4.138
		c0.08-1.436,0.22-2.917,0.439-4.591l0.958-7.102h2.456l1.059,7.461c0.12,0.884,0.16,1.362,0.34,4.232
		c0.099-2.271,0.18-3.563,0.3-4.591l0.798-7.102h2.357L72.411,72.98h-2.396l-1.138-7.818c-0.221-1.579-0.3-2.487-0.32-3.587
		c-0.1,1.267-0.24,2.701-0.359,3.587L67.06,72.98h-2.396L62.227,57.032"/>
	<polyline clip-path="url(#SVGID_6_)" fill="#FFFFFF" points="78.563,63.537 81.797,63.537 81.797,66.19 78.563,66.19 
		78.563,70.184 82.776,70.184 82.776,72.98 75.827,72.98 75.827,57.032 82.776,57.032 82.776,59.831 78.563,59.831 78.563,63.537 	
		"/>
	<rect x="83.996" y="57.032" clip-path="url(#SVGID_6_)" fill="#FFFFFF" width="2.737" height="15.948"/>
	<polyline clip-path="url(#SVGID_6_)" fill="#FFFFFF" points="95.658,70.184 95.658,72.98 88.009,72.98 88.009,70.422 
		92.543,59.687 88.37,59.687 88.37,57.032 95.538,57.032 95.538,59.543 91.005,70.184 95.658,70.184 	"/>
	<path clip-path="url(#SVGID_6_)" fill="#FFFFFF" d="M41.057,82.858c-0.259-1.267-0.738-1.864-1.497-1.864
		c-0.719,0-1.159,0.597-1.159,1.577c0,0.55,0.159,0.98,0.5,1.292c0.339,0.334,0.339,0.334,1.857,1.172
		c1.796,1.004,2.555,2.319,2.555,4.472c0,3.084-1.558,5.044-4.034,5.044c-2.196,0-3.474-1.386-3.914-4.305l2.178-0.909
		c0.318,1.722,0.798,2.345,1.756,2.345c0.819,0,1.339-0.67,1.339-1.674c0-0.501-0.161-0.98-0.42-1.268
		c-0.259-0.286-0.259-0.286-1.836-1.219c-1.738-1.028-2.537-2.463-2.537-4.542c0-2.774,1.558-4.854,3.634-4.854
		c1.838,0,3.015,1.196,3.634,3.683L41.057,82.858"/>
	<polyline clip-path="url(#SVGID_6_)" fill="#FFFFFF" points="44.533,78.363 47.268,78.363 47.268,91.371 50.663,91.371 
		50.663,94.312 44.533,94.312 44.533,78.363 	"/>
	<path clip-path="url(#SVGID_6_)" fill="#FFFFFF" d="M59.59,86.468c0,5.548-1.318,8.082-4.194,8.082
		c-2.795,0-4.134-2.678-4.134-8.32c0-5.547,1.339-8.106,4.253-8.106C58.272,78.124,59.59,80.826,59.59,86.468 M54.158,86.349
		c0,4.208,0.279,5.356,1.278,5.356c1.059,0,1.258-0.933,1.258-5.571c0-4.017-0.279-5.166-1.237-5.166
		C54.438,80.969,54.158,82.117,54.158,86.349z"/>
	<path clip-path="url(#SVGID_6_)" fill="#FFFFFF" d="M60.049,78.363h2.895l0.738,7.556c0.12,1.292,0.201,2.319,0.261,4.138
		c0.08-1.437,0.219-2.917,0.439-4.592l0.958-7.102h2.456l1.059,7.46c0.12,0.886,0.159,1.363,0.34,4.233
		c0.1-2.271,0.179-3.563,0.299-4.592l0.799-7.102h2.357l-2.417,15.949h-2.396l-1.138-7.819c-0.22-1.578-0.3-2.487-0.319-3.586
		c-0.101,1.267-0.24,2.702-0.36,3.586l-1.139,7.819h-2.396L60.049,78.363"/>
	<path clip-path="url(#SVGID_6_)" fill="#FFFFFF" d="M78.083,78.363l3.015,15.949h-2.755l-0.539-3.443h-2.637l-0.539,3.443h-2.436
		l3.055-15.949H78.083 M76.764,84.03c-0.18-0.956-0.219-1.458-0.28-2.677c-0.12,1.052-0.199,1.769-0.318,2.535l-0.719,4.398h2.057
		L76.764,84.03z"/>
	<path clip-path="url(#SVGID_6_)" fill="#FFFFFF" d="M81.917,78.363h2.735v5.213c0,0.407,0,0.407-0.06,1.292
		c0,0.095-0.02,0.333-0.039,0.597c0.179-0.812,0.399-1.577,0.499-1.817l1.996-5.284h2.676l-2.695,5.906l3.095,10.043h-2.815
		l-1.877-7.197l-0.779,2.128v5.069h-2.735V78.363"/>
	<rect x="91.104" y="78.363" clip-path="url(#SVGID_6_)" fill="#FFFFFF" width="2.736" height="15.949"/>
	<path clip-path="url(#SVGID_6_)" fill="#FFFFFF" d="M100.57,82.858c-0.26-1.267-0.738-1.864-1.498-1.864
		c-0.718,0-1.157,0.597-1.157,1.577c0,0.55,0.158,0.98,0.499,1.292c0.34,0.334,0.34,0.334,1.855,1.172
		c1.798,1.004,2.558,2.319,2.558,4.472c0,3.084-1.559,5.044-4.033,5.044c-2.197,0-3.476-1.386-3.915-4.305l2.177-0.909
		c0.319,1.722,0.799,2.345,1.758,2.345c0.818,0,1.337-0.67,1.337-1.674c0-0.501-0.159-0.98-0.419-1.268
		c-0.26-0.286-0.26-0.286-1.838-1.219c-1.737-1.028-2.535-2.463-2.535-4.542c0-2.774,1.558-4.854,3.635-4.854
		c1.836,0,3.015,1.196,3.634,3.683L100.57,82.858"/>
	<path clip-path="url(#SVGID_6_)" fill="#FFFFFF" d="M109.517,84.508c-0.08-2.559-0.479-3.54-1.517-3.54
		c-1.139,0-1.479,1.315-1.479,5.62c0,3.944,0.32,5.117,1.437,5.117c1.02,0,1.379-0.718,1.559-3.18l2.316,0.214
		c-0.101,1.745-0.319,2.799-0.779,3.73c-0.718,1.434-1.717,2.08-3.175,2.08c-2.837,0-4.253-2.726-4.253-8.178
		c0-5.331,1.538-8.249,4.352-8.249c1.599,0,2.777,0.885,3.375,2.512c0.321,0.884,0.48,1.888,0.58,3.633L109.517,84.508"/>
	<polyline clip-path="url(#SVGID_6_)" fill="#FFFFFF" points="118.004,84.652 118.004,78.363 120.74,78.363 120.74,94.312 
		118.004,94.312 118.004,87.449 115.968,87.449 115.968,94.312 113.233,94.312 113.233,78.363 115.968,78.363 115.968,84.652 
		118.004,84.652 	"/>
	<polyline clip-path="url(#SVGID_6_)" fill="#FFFFFF" points="125.495,84.867 128.728,84.867 128.728,87.521 125.495,87.521 
		125.495,91.513 129.708,91.513 129.708,94.312 122.758,94.312 122.758,78.363 129.708,78.363 129.708,81.162 125.495,81.162 
		125.495,84.867 	"/>
	<path clip-path="url(#SVGID_6_)" fill="#FFFFFF" d="M36.365,99.694H39.8c1.796,0,2.435,0.216,3.095,1.028
		c0.739,0.933,1.097,2.153,1.097,3.705c0,2.152-0.499,3.372-1.738,4.306l2.018,6.909h-2.875l-1.519-6.265H39.04v6.265h-2.675V99.694
		 M39.8,106.748c0.978,0,1.477-0.766,1.477-2.32c0-1.48-0.499-2.222-1.477-2.222h-0.76v4.542H39.8z"/>
	<polyline clip-path="url(#SVGID_6_)" fill="#FFFFFF" points="48.286,106.198 51.521,106.198 51.521,108.852 48.286,108.852 
		48.286,112.845 52.5,112.845 52.5,115.642 45.551,115.642 45.551,99.694 52.5,99.694 52.5,102.491 48.286,102.491 48.286,106.198 	
		"/>
	<path clip-path="url(#SVGID_6_)" fill="#FFFFFF" d="M53.719,99.694h3.334c1.757,0,2.337,0.169,3.036,0.933
		c0.778,0.812,1.237,2.367,1.237,4.113c0,1.983-0.558,3.562-1.497,4.326c-0.679,0.526-1.278,0.695-2.637,0.695h-0.798v5.881h-2.676
		V99.694 M57.054,106.962c1.059,0,1.438-0.621,1.438-2.414c0-1.626-0.438-2.343-1.438-2.343h-0.659v4.757H57.054z"/>
	<path clip-path="url(#SVGID_6_)" fill="#FFFFFF" d="M65.182,99.694v10.139c0,2.438,0.3,3.107,1.438,3.107
		c0.439,0,0.778-0.239,0.978-0.693c0.2-0.43,0.259-1.052,0.259-2.582v-9.971h2.316v9.971c0,2.82-0.319,4.28-1.138,5.188
		c-0.619,0.693-1.518,1.027-2.716,1.027c-2.835,0-3.874-1.577-3.874-5.93V99.694H65.182"/>
	<path clip-path="url(#SVGID_6_)" fill="#FFFFFF" d="M72.092,99.694h3.635c1.897,0,2.316,0.095,2.935,0.693
		c0.779,0.741,1.198,1.938,1.198,3.443c0,1.89-0.479,2.893-1.657,3.491c0.659,0.286,0.999,0.55,1.318,1.027
		c0.458,0.741,0.718,1.817,0.718,2.988c0,1.363-0.379,2.535-1.058,3.348c-0.599,0.694-1.437,0.957-2.976,0.957h-4.114V99.694
		 M75.727,106.125c1.019,0,1.478-0.549,1.478-1.792c0-1.362-0.519-2.079-1.478-2.079h-0.999v3.871H75.727z M75.806,112.988
		c1.159,0,1.639-0.621,1.639-2.129c0-0.835-0.2-1.529-0.52-1.889c-0.219-0.214-0.498-0.285-1.198-0.285h-0.999v4.303H75.806z"/>
	<polyline clip-path="url(#SVGID_6_)" fill="#FFFFFF" points="81.619,99.694 84.355,99.694 84.355,112.701 87.75,112.701 
		87.75,115.642 81.619,115.642 81.619,99.694 	"/>
	<rect x="88.768" y="99.694" clip-path="url(#SVGID_6_)" fill="#FFFFFF" width="2.735" height="15.948"/>
	<path clip-path="url(#SVGID_6_)" fill="#FFFFFF" d="M93.542,99.694h2.735v5.212c0,0.408,0,0.408-0.06,1.292
		c0,0.096-0.021,0.335-0.041,0.597c0.18-0.812,0.4-1.576,0.501-1.817l1.995-5.283h2.677l-2.696,5.905l3.097,10.043h-2.817
		l-1.877-7.197l-0.778,2.129v5.068h-2.735V99.694"/>
</g>
</svg>
