<svg id="Capa_1" data-name="Capa 1" xmlns="http://www.w3.org/2000/svg" viewBox="0 0 47.03 33.11"><path class="cls-1" d="M7.57,17.28a8.83,8.83,0,0,0-2.4.42l-2.78.81a3.21,3.21,0,0,0,.82,6.31,4.5,4.5,0,0,0,.95-0.12V36.6a3.46,3.46,0,1,0,6.93,0V20.75A3.48,3.48,0,0,0,7.57,17.28Z" transform="translate(0 -6.96)"/><path d="M26.58,28.2h-3l0.13-.1c3.54-2.74,5.69-4.69,5.69-8.73,0-4.43-3.26-7.4-8.1-7.4a9.06,9.06,0,0,0-7.42,3.37,3.48,3.48,0,0,0-.82,2.2,3.32,3.32,0,0,0,5.73,2.25c1-1.09,1.54-1.29,2.23-1.29a1.11,1.11,0,0,1,1.32,1.23c0,0.93-.4,1.65-2.92,3.69L13.85,28a4,4,0,0,0-1.62,3.19,3.38,3.38,0,0,0,3.66,3.38H26.58A3.19,3.19,0,1,0,26.58,28.2Z" transform="translate(0 -6.96)"/><path d="M43,15.66l2.19-2.09a4.39,4.39,0,0,0,1.7-3.37A3.27,3.27,0,0,0,43.37,7H33.78a3.18,3.18,0,1,0,0,6.36h2.86l-1.58,1.59a3.81,3.81,0,0,0-1.31,2.71,3.19,3.19,0,0,0,3.18,3.18h0.68c0.76,0,2.52.11,2.52,1.24a1.24,1.24,0,0,1-1.46,1.06,4.32,4.32,0,0,1-3-1.15,3.38,3.38,0,0,0-2.23-.84,3.38,3.38,0,0,0-2.22,6,11,11,0,0,0,7.39,2.57c5,0,8.41-3.19,8.41-7.82A6.26,6.26,0,0,0,43,15.66Z" transform="translate(0 -6.96)"/></svg>