<svg id="Capa_1" data-name="Capa 1" xmlns="http://www.w3.org/2000/svg" viewBox="0 0 310 310"><path class="cls-1" d="M310,118.75L302.24,12.38a5,5,0,0,0-4.62-4.62L191.25,0a5,5,0,0,0-3.9,1.45L1.47,187.35a5,5,0,0,0,0,7.07L115.58,308.54a5,5,0,0,0,7.07,0L308.54,122.65A5,5,0,0,0,310,118.75Zm-100.47,46.7-14.76,5.29a4.13,4.13,0,0,1-5.28-2.49,29.46,29.46,0,0,0-6.92-11c-10.78-10.78-28.49-11.76-43.55-2.9l24.81,24.81a4.13,4.13,0,0,1,0,5.84L152.73,196.1a4.13,4.13,0,0,1-5.84,0l-24.81-24.81c-8.87,15.05-7.89,32.76,2.89,43.55a29.38,29.38,0,0,0,11,6.92,4.13,4.13,0,0,1,2.5,5.27l-5.28,14.77a4.13,4.13,0,0,1-5.28,2.5,53.14,53.14,0,0,1-19.85-12.53C88.19,211.89,87,179,104.8,154L102,151.21a4.13,4.13,0,0,1,0-5.84l11.09-11.09a4.13,4.13,0,0,1,5.84,0l2.79,2.79c25-17.79,57.89-16.61,77.76,3.26A53.2,53.2,0,0,1,212,160.17,4.13,4.13,0,0,1,209.52,165.45ZM237,95.11a23.69,23.69,0,1,1,23.7-23.69A23.72,23.72,0,0,1,237,95.11Z" transform="translate(0 0)"/></svg>