<svg id="Capa_1" data-name="Capa 1" xmlns="http://www.w3.org/2000/svg" viewBox="0 0 495.62 358.29"><path class="cls-1" d="M497.81,115.27v150s-32.11,6.33-38.73,7.16-27.32,7.52-42.33-6.91c-23.16-22.2-105.45-104-105.45-104s-14.19-13.92-37-1.89c-20.91,11-51.91,27.18-64.86,33.46-24.48,13-44.76-7.64-44.76-23.39,0-12.21,7.62-20.5,18.51-26.6,29.52-17.9,91.75-52.83,117.67-66.6,15.75-8.38,27.11-9.1,48.73,9.12,26.64,22.4,50.34,42.82,50.34,42.82s7.73,6.45,20.06,3.85C450.32,125.9,497.81,115.27,497.81,115.27ZM170.29,369.48c4-10.24,2.65-21.69-5-29.55-6.87-7-16.89-8.88-26.44-6.69,2.67-9.48,1.2-19.57-5.71-26.69s-16.89-8.9-26.45-6.69c2.65-9.46,1.18-19.55-5.72-26.65-10.78-11.08-29.51-10.61-41.78,1.1s-20,33-9.14,45.49,23.41,4.87,32.94,2.7c-2.67,9.47-10.62,18.27-.8,30.68s23.4,4.88,33,2.72c-2.66,9.43-10.27,19.12-.85,30.6s25.07,5.38,35.34,2.19c-4,10.2-12.46,21.19-1.55,33.51s36.06,6.67,48.36-5.06,13.44-30.32,2.65-41.45C191.62,368,180.53,366.27,170.29,369.48Zm224.34-78c-88.88-88.88-47.08-47.06-94.91-95,0,0-14.37-14.31-33.32-6-13.3,5.83-30.42,13.77-43.31,19.84C208.93,217.69,198.74,220,194,220a49.42,49.42,0,0,1-26.11-91.47c19.75-13.67,65.21-37.85,65.21-37.85S219.19,73.1,188.88,73.1s-93.69,41.51-93.69,41.51-18,11.51-43.6,1.14L2.19,98.56V270.18s14.1,4.08,26.77,9.26a56.45,56.45,0,0,1,13.89-21.92c21-20,55.87-20.23,75-.54a47.32,47.32,0,0,1,11.83,21A47.89,47.89,0,0,1,150,290.36a47.23,47.23,0,0,1,11.85,21,48.29,48.29,0,0,1,32.83,35.38,48.59,48.59,0,0,1,21.18,12.69c11.49,11.81,15.57,27.83,13.1,43.28a0.08,0.08,0,0,1,.08,0c0.19,0.25,7.12,8,11.45,12.34a21.79,21.79,0,0,0,30.81-30.81c-0.3-.3-30.57-32-28.14-34.42s41,37.69,41.7,38.42a21.77,21.77,0,1,0,30.79-30.79c-0.42-.4-2.15-2.06-2.8-2.72,0,0-38.23-34.06-35.32-37S328,359.11,328,359.11a21.5,21.5,0,0,0,31-29.73c-0.15-.45-36.19-38.12-33.38-41s38.55,34,38.55,34.1A21.79,21.79,0,0,0,395,291.65Z" transform="translate(-2.19 -70.84)"/></svg>