<svg id="Capa_1" data-name="Capa 1" xmlns="http://www.w3.org/2000/svg" viewBox="0 0 493.68 493.76"><title>leistungen</title><path d="M495.31,224.71c-0.79-6.94-8.88-12.15-15.87-12.15a54.52,54.52,0,0,1-37.33-94.87,13.73,13.73,0,0,0,1.52-18.62,244.41,244.41,0,0,0-39.1-39.5,13.75,13.75,0,0,0-18.77,1.52c-14.71,16.29-41.15,22.36-61.58,13.84a54.84,54.84,0,0,1-33.35-53.6A13.71,13.71,0,0,0,278.7,6.89a246.38,246.38,0,0,0-55.52-.15A13.75,13.75,0,0,0,211,20.87a54.94,54.94,0,0,1-33.82,52.7C157,81.82,130.72,75.71,116,59.65a13.75,13.75,0,0,0-18.62-1.56A245.41,245.41,0,0,0,57.48,97.57a13.73,13.73,0,0,0,1.45,18.71,54.71,54.71,0,0,1,13.82,61.6C64.2,198.17,43.15,211.26,19,211.26A13.43,13.43,0,0,0,4.76,223.39a247.49,247.49,0,0,0,0,56.14c0.79,7,9.12,12.15,16.19,12.15a54.15,54.15,0,0,1,50.69,33.87,54.92,54.92,0,0,1-13.82,61,13.71,13.71,0,0,0-1.49,18.6,245.26,245.26,0,0,0,39.06,39.53,13.73,13.73,0,0,0,18.79-1.49c14.78-16.34,41.21-22.38,61.54-13.84a54.75,54.75,0,0,1,33.42,53.53,13.71,13.71,0,0,0,12.11,14.43,245.82,245.82,0,0,0,55.52.15A13.73,13.73,0,0,0,289,483.37a54.88,54.88,0,0,1,33.78-52.64c20.31-8.31,46.44-2.14,61.13,13.9a13.79,13.79,0,0,0,18.64,1.56,245.76,245.76,0,0,0,40-39.5A13.71,13.71,0,0,0,441,387.92a54.71,54.71,0,0,1-13.84-61.58,55.26,55.26,0,0,1,50.5-33.46h3.05a13.75,13.75,0,0,0,14.46-12.11A246.4,246.4,0,0,0,495.31,224.71ZM250,394.45a142.32,142.32,0,1,1,122.21-69.36l-62.33-62.33A87.31,87.31,0,0,0,206.48,144.53a9.89,9.89,0,0,0-6.94,6.88,9.65,9.65,0,0,0,2.73,9.44s30.77,31,41.06,41.3a6.41,6.41,0,0,1,.92,4.57v0.68c-1,11.32-3,24.9-4.7,30.13l-0.66.64-0.68.7c-5.3,1.69-19.09,3.72-30.58,4.74h0l-0.51.13h-0.47a6.58,6.58,0,0,1-4.74-2c-10.68-10.68-40.27-40.06-40.27-40.06a10.06,10.06,0,0,0-7.17-3.2,9.76,9.76,0,0,0-9.2,7.5A87.31,87.31,0,0,0,263.6,309.06l63,63A141.62,141.62,0,0,1,250,394.45Z" transform="translate(-3.16 -5.24)"/></svg>