<svg id="Capa_1" data-name="Capa 1" xmlns="http://www.w3.org/2000/svg" viewBox="0 0 465.2 461.83"><title>time-left_web</title><g id="Layer_2" data-name="Layer 2"><path d="M279.59,423.71c-3.84,1-7.75,1.8-11.63,2.52A18.7,18.7,0,0,0,274.77,463c4.62-.86,9.28-1.87,13.85-3A18.7,18.7,0,0,0,279.59,423.71Z" transform="translate(0 -1.69)"/><path d="M417.89,173a18.7,18.7,0,0,0,35.51-11.76c-1.48-4.47-3.12-8.95-4.86-13.31a18.7,18.7,0,1,0-34.73,13.88C415.27,165.53,416.65,169.29,417.89,173Z" transform="translate(0 -1.69)"/><path d="M340.36,397c-3.3,2.18-6.7,4.29-10.13,6.26a18.7,18.7,0,1,0,18.69,32.4c4.08-2.35,8.13-4.85,12.06-7.45A18.7,18.7,0,0,0,340.36,397Z" transform="translate(0 -1.69)"/><path d="M465,225.28a18.7,18.7,0,1,0-37.37,1.47c0.15,3.95.2,7.95,0.1,11.89a18.7,18.7,0,1,0,37.39.83C465.25,234.76,465.21,230,465,225.28Z" transform="translate(0 -1.69)"/><path d="M414.83,347.82a18.69,18.69,0,0,0-26.19,3.74c-2.37,3.16-4.87,6.29-7.43,9.3a18.71,18.71,0,0,0,2.11,26.36c0.45,0.38.9,0.73,1.37,1.06a18.7,18.7,0,0,0,25-3.17c3.06-3.59,6-7.32,8.87-11.1A18.7,18.7,0,0,0,414.83,347.82Z" transform="translate(0 -1.69)"/><path d="M442.33,280.21a18.7,18.7,0,0,0-23.44,12.25c-1.18,3.77-2.49,7.55-3.91,11.25A18.7,18.7,0,0,0,449.93,317c1.68-4.4,3.24-8.91,4.65-13.38A18.71,18.71,0,0,0,442.33,280.21Z" transform="translate(0 -1.69)"/><path d="M198,426.4a193.1,193.1,0,0,1-48-15.24c-0.18-.09-0.34-0.2-0.53-0.29-3.58-1.69-7.16-3.49-10.63-5.38l-0.05,0a199.49,199.49,0,0,1-18.61-11.63c-88-62-109.12-184-47.15-271.93a194.34,194.34,0,0,1,48-47.72l0.67-.47C185.76,29.57,272.76,26.59,340.79,72L326.18,93.07c-4.06,5.88-1.56,10.16,5.55,9.52l63.47-5.68c7.12-.64,11.38-6.8,9.46-13.68l-17-61.41c-1.91-6.88-6.79-7.71-10.86-1.83L362.11,41.15a231,231,0,0,0-169.24-36q-9,1.55-17.71,3.78L175,9l-0.67.19A230.6,230.6,0,0,0,46.5,94.86c-0.27.32-.55,0.63-0.8,1-1.06,1.43-2.11,2.89-3.15,4.35-1.69,2.4-3.35,4.85-4.94,7.31-0.2.3-.35,0.6-0.53,0.9a230.56,230.56,0,0,0-36.85,136c0,0.16,0,.32,0,0.48,0.21,4.69.58,9.45,1.09,14.13,0,0.3.09,0.59,0.14,0.89,0.52,4.71,1.18,9.43,2,14.14A230.8,230.8,0,0,0,68.55,399.19l0.24,0.25,0.09,0.08a235.64,235.64,0,0,0,29.79,24.9,230.58,230.58,0,0,0,92.73,38.81A18.7,18.7,0,0,0,198,426.4Z" transform="translate(0 -1.69)"/><path d="M221.12,83.2A15.14,15.14,0,0,0,206,98.33V249.08l137.87,71.27a15.13,15.13,0,0,0,13.89-26.88L236.24,230.65V98.33A15.13,15.13,0,0,0,221.12,83.2Z" transform="translate(0 -1.69)"/></g></svg>