<svg id="Layer_1" data-name="Layer 1" xmlns="http://www.w3.org/2000/svg" viewBox="0 0 1335.64 311.79"><defs><style>.cls-1{fill:none;stroke:#fff;stroke-miterlimit:10;stroke-width:9px;}</style></defs><title>Slowissvector95%_7bc1003d-9503-4124-91e3-53d46b36635d</title><path class="cls-1" d="M305,192.14s-1.94,14-2,14.75c-0.07,2-.16,6.21,0,9.85v2.06s0.61,11.11,2,16.58c5.17,21.12,17.52,35.62,38.55,42.17a92.41,92.41,0,0,0,26.73,3.94c19.33,0.18,38.67,0,58,.08,12,0,18.65,5.61,19.74,17.39,1.29,13.86-3.78,23.15-18.12,24.14a3.4,3.4,0,0,0-.66.14,18.59,18.59,0,0,1-5.11.3H311c-1.37,0-2.74,0-4.11,0-2.59-.06-3.53,1-3.51,3.71,0.13,13.49.06,27,.06,40.46,0,3.79,0,3.79,4,3.79H431.53a9.81,9.81,0,0,0,3.4-.21,81.4,81.4,0,0,0,12.59-1.48c24.65-4.64,40.7-18.57,46.46-43.39a105.22,105.22,0,0,0-.22-49.28c-5.23-21.39-18.59-35.14-39.92-40.95a101.54,101.54,0,0,0-27.16-3.12c-18.08.06-36.15,0.12-54.23,0-12.44-.1-19.13-5.23-21.05-15.85a37.44,37.44,0,0,1-.37-7.86c0.42-12.6,7.08-19.32,19.65-20,1.14-.06,2.29,0,3.43,0q63.32,0,126.64-.07c3.09,0,4,.71,4,3.9q-0.15,87.35-.14,174.69c0,3,.6,4,3.87,4q120-.15,239.9-0.11c11.42,0,22.86.12,34.22-1.78,62.19-10.36,104.86-70,94.24-131.86-11.07-64.43-72.14-106.67-135.92-94C660.94,160,622.62,253,668.09,320.67c0.66,1,1.8,1.78,1.68,3.41h-3.44c-36.72,0-73.45,0-110.17.08-3.32,0-4.08-.8-4.07-4.09,0.11-58.12.05-116.23,0.16-174.35,0-3.13-.77-3.9-3.89-3.89q-86.83.15-173.66,0.06a139.77,139.77,0,0,0-19.49,1.32c-28,3.92-45.5,21-50.23,48.92M830.9,258c-0.69,37.22-31.6,66.68-69.18,65.92-36.49-.74-66.35-31.51-65.69-67.72,0.7-38.53,31.15-67.7,69.89-67C802.08,189.95,831.57,221.15,830.9,258Z" transform="translate(-298.45 -64.64)"/><path class="cls-1" d="M1629.34,297.74a70.44,70.44,0,0,1,.18,8.86l-0.18,3.5c-0.6,5.13-1.26,7.49-1.9,11.23-4.87,28.5-22.69,45.61-51.44,49.26a151.48,151.48,0,0,1-19.16,1.19H1407.9c-0.11-.67.49-0.74,0.82-0.88,18.47-7.76,28.3-22.33,32.48-41.3,1.15-5.25,1.06-5.27,6.54-5.27h109.82a38.51,38.51,0,0,0,10.87-1.2c5.92-1.73,10-5.46,11.73-11.42a31.52,31.52,0,0,0,0-18.58c-2.52-8.13-9-12.43-19.15-12.49-18.42-.11-36.84,0-55.25,0a103.88,103.88,0,0,1-27.49-3.29c-21.09-5.75-34.32-19.34-39.6-40.4a104.18,104.18,0,0,1,0-51.28c5.82-23.19,21.08-36.69,44.25-41.57a105.2,105.2,0,0,1,21.81-2.12q51.31,0,102.62-.06c2.89,0,3.55.74,3.52,3.57q-0.24,20.42,0,40.84c0,2.67-.78,3.14-3.25,3.14q-50.75-.13-101.5,0a40.55,40.55,0,0,0-5.51.34c-10.47,1.44-15.45,6.25-17.12,16.59a31.07,31.07,0,0,0,.68,13.27c2.46,9,9.12,13.47,20.52,13.54,18.07,0.12,36.15.07,54.23,0a105.83,105.83,0,0,1,25.17,2.63c24.69,5.95,38.43,21.9,43.17,46.25,0,0.25,2.13,15.87,2.18,16.12" transform="translate(-298.45 -64.64)"/><path class="cls-1" d="M1201.67,69.14c0.81,1.25,2.25.85,3.36,1.16a31.48,31.48,0,0,1,22.68,36.5c-2.72,15-17.52,26.47-32.54,25.27-16.88-1.35-29.52-14.53-29.76-31-0.22-14.84,10.11-27.72,25-31.14,0.61-.14,1.43.18,1.7-0.74h2.06a8.93,8.93,0,0,0,5.49,0h2.06Z" transform="translate(-298.45 -64.64)"/><path class="cls-1" d="M1127.49,371.79l-39.79.1q-11-30-22-60-15.92-43.69-31.8-87.43c-1.4.25-1.22,1.54-1.5,2.35q-25.23,72.13-50.38,144.29a4.27,4.27,0,0,0-.12.67l-39.77.17c-5.14-13.77-10.33-27.53-15.41-41.33q-34.09-92.47-68.13-185c-0.39-1.05-.71-2.14-1.09-3.31,1-.7,2.07-0.41,3-0.42,14.64,0,29.29,0,43.93-.08,2.44,0,3.47.7,4.3,3q26,72.83,52.2,145.67c1.47-.55,1.35-2,1.72-3.06q25.12-71.33,50.1-142.71c0.75-2.15,1.6-3,4-2.94q16.64,0.24,33.29,0c2.46,0,3.49.72,4.31,3q25.47,71.39,51.12,142.71c0.34,1,.71,1.9,1.12,3,1.31-.63,1.25-1.92,1.59-2.88q25.1-71.34,50.09-142.71c0.77-2.19,1.62-3.18,4.2-3.16q31.23,0.2,62.46,0c2.68,0,3.38.66,3.38,3.37q-0.12,87.52-.14,175c0,3.25.69,4.16,4.07,4.15,43.81-.13,87.63-0.08,131.45-0.09,1.6,0,3.21,0,4.8-.14,12.89-1.13,18.55-6.87,19.56-19.77a30.92,30.92,0,0,0-.71-9.21c-2.13-9.45-8.79-14.5-19.64-14.57-18.53-.13-37.07-0.05-55.6-0.06a103,103,0,0,1-26.82-3.16c-21.05-5.64-34.49-18.95-39.89-40.08a102.84,102.84,0,0,1,.35-53.58c6.18-22.38,21.51-35.1,43.94-39.74a108.54,108.54,0,0,1,22.15-2.09q51,0,101.93-.06c2.78,0,3.62.55,3.58,3.49q-0.27,20.25,0,40.5c0,2.81-.6,3.58-3.51,3.57-33.06-.12-66.12-0.07-99.18-0.07-1,0-2.06,0-3.09,0-7.85.22-15.47,1.6-19.16,9.48-4.13,8.82-4.25,18.07,1.05,26.57,4.08,6.55,11.07,7.67,18.11,7.71,18.07,0.11,36.15.08,54.23,0a100.38,100.38,0,0,1,26.82,3.11c21,5.71,34.46,19,39.81,40.19a103.23,103.23,0,0,1-.32,53.25c-6.25,22.85-21.93,35.6-44.78,40.13a113.7,113.7,0,0,1-22.17,2q-90.26,0-180.52.09c-3.5,0-4-1.1-4-4.24q0.15-71.2.07-142.4c-0.89-.2-0.89.48-1.07,1Z" transform="translate(-298.45 -64.64)"/></svg>