<?xml version="1.0" encoding="utf-8"?>
<!-- Generator: Adobe Illustrator 19.2.1, SVG Export Plug-In . SVG Version: 6.00 Build 0)  -->
<svg version="1.1" id="Layer_1" xmlns="http://www.w3.org/2000/svg" xmlns:xlink="http://www.w3.org/1999/xlink" x="0px" y="0px"
	 viewBox="0 0 2062 594" style="enable-background:new 0 0 2062 594;" xml:space="preserve">
<style type="text/css">
	.st0{fill:#9D0B0F;}
	.st1{fill:#B0393C;}
	.st2{fill:none;enable-background:new    ;}
</style>
<g>
	<path class="st0" d="M108,240c0,0-0.4,8.8,0,16c0,1,0,2,0,3c0,0,0.9,16.2,2.8,24.2c7.5,30.8,25.5,51.9,56.2,61.4
		c12.7,3.9,25.8,5.6,38.9,5.7c28.2,0.3,56.3,0,84.5,0.1c17.5,0.1,27.2,8.2,28.8,25.3c1.9,20.2-5.5,33.7-26.4,35.2
		c-0.3,0-0.7,0.1-1,0.2c-2.4,0.7-5,0.4-7.4,0.4c-54.9,0-109.9,0-164.8,0c-2,0-4,0.1-6,0c-3.8-0.1-5.1,1.5-5.1,5.4
		c0.2,19.6,0.1,39.3,0.1,58.9c0,5.5,0,5.5,5.8,5.5c60.3,0,120.6,0,180.8,0c1.7,0,3.3,0.3,5-0.3c6.2-0.2,12.3-1,18.3-2.2
		c35.9-6.8,59.3-27.1,67.7-63.2c5.5-23.9,5.5-48-0.3-71.8c-7.6-31.2-27.1-51.2-58.2-59.6c-12.9-3.5-26.2-4.6-39.6-4.6
		c-26.3,0.1-52.7,0.2-79,0c-18.1-0.2-27.9-7.6-30.7-23.1c-0.7-3.7-0.7-7.6-0.5-11.5c0.6-18.4,10.3-28.1,28.6-29.1
		c1.7-0.1,3.3-0.1,5-0.1c61.5,0,123,0,184.5-0.1c4.5,0,5.8,1,5.8,5.7c-0.2,84.8-0.1,169.7-0.2,254.5c0,4.4,0.9,5.8,5.6,5.8
		c116.5-0.2,233-0.1,349.5-0.2c16.6,0,33.3,0.2,49.8-2.6c90.6-15.1,152.8-102,137.3-192.1c-16.1-93.9-105.1-155.4-198-136.9
		c-116.5,23.1-172.3,158.6-106,257.2c1,1.4,2.6,2.6,2.5,5c-1.7,0-3.4,0-5,0c-53.5,0-107-0.1-160.5,0.1c-4.8,0-5.9-1.2-5.9-6
		c0.2-84.7,0.1-169.3,0.2-254c0-4.6-1.1-5.7-5.7-5.7c-84.3,0.1-168.7,0.1-253,0.1c-9.5,0-19,0.6-28.4,1.9
		c-40.7,5.7-66.3,30.6-73.2,71.3 M876.9,316.1c-1,54.2-46,97.1-100.8,96c-53.2-1.1-96.7-45.9-95.7-98.6c1-56.1,45.4-98.6,101.8-97.5
		C834.9,217,877.9,262.4,876.9,316.1z"/>
	<path class="st0" d="M2040,374c0.6,4.9,0.3,12.9,0.3,12.9l-0.3,5.1c-0.9,7.5-1.8,10.9-2.8,16.4c-7.1,41.5-33.1,66.4-74.9,71.8
		c-9.3,1.2-18.6,1.7-27.9,1.7c-72.3,0-144.7,0-217,0c-0.2-1,0.7-1.1,1.2-1.3c26.9-11.3,41.2-32.5,47.3-60.2c1.7-7.6,1.5-7.7,9.5-7.7
		c53.3,0,106.7,0,160,0c5.3,0,10.7-0.2,15.8-1.8c8.6-2.5,14.5-8,17.1-16.6c2.7-9,2.7-18.1,0-27.1c-3.7-11.8-13.2-18.1-27.9-18.2
		c-26.8-0.2-53.7-0.1-80.5-0.1c-13.5,0-26.9-1.2-40-4.8c-30.7-8.4-50-28.2-57.7-58.9c-6.2-24.8-6.2-49.9,0-74.7
		c8.5-33.8,30.7-53.5,64.5-60.6c10.5-2.2,21.1-3.1,31.8-3.1c49.8,0,99.7,0.1,149.5-0.1c4.2,0,5.2,1.1,5.1,5.2
		c-0.2,19.8-0.2,39.7,0,59.5c0,3.9-1.1,4.6-4.7,4.6c-49.3-0.1-98.6-0.1-147.9-0.1c-2.7,0-5.4,0.1-8,0.5
		c-15.3,2.1-22.5,9.1-24.9,24.2c-1,6.5-0.8,13,1,19.3c3.6,13.1,13.3,19.6,29.9,19.7c26.3,0.2,52.7,0.1,79,0
		c12.4,0,24.6,0.9,36.7,3.8c36.3,8.8,56.4,32.4,63.1,68.5"/>
	<path class="st0" d="M1417,41c1.2,1.8,3.3,1.2,4.9,1.7c23.4,6.5,37.4,29,33,53.2c-4,21.8-25.5,38.6-47.4,36.8
		c-24.6-2-43-21.2-43.4-45.2c-0.3-21.6,14.7-40.4,36.4-45.4c0.9-0.2,2.1,0.3,2.5-1.1c1,0,2,0,3,0c2.7,0.8,5.3,0.8,8,0
		C1415,41,1416,41,1417,41z"/>
	<path class="st1" d="M1414,41c-2.7,1.5-5.3,1.5-8,0C1408.7,41,1411.3,41,1414,41z"/>
	<path class="st0" d="M1308.9,481.9c-19.3,0-38.6,0.1-58,0.1c-10.7-29.1-21.4-58.3-32-87.5c-15.5-42.4-30.9-84.9-46.3-127.4
		c-2,0.4-1.8,2.2-2.2,3.4c-24.5,70-48.9,140.1-73.4,210.2c-0.1,0.3-0.1,0.7-0.2,1c-19.3,0.1-38.6,0.2-57.9,0.2
		c-7.5-20.1-15-40.1-22.5-60.2c-33.1-89.8-66.2-179.6-99.2-269.4c-0.6-1.5-1-3.1-1.6-4.8c1.5-1,3-0.6,4.4-0.6
		c21.3,0,42.7,0.1,64-0.1c3.5,0,5.1,1,6.3,4.4c25.2,70.7,50.6,141.4,76,212.2c2.1-0.8,2-2.9,2.5-4.5c24.4-69.3,48.7-138.6,73-207.9
		c1.1-3.1,2.3-4.3,5.8-4.3c16.2,0.2,32.3,0.2,48.5,0c3.6,0,5.1,1.1,6.3,4.4c24.7,69.3,49.6,138.6,74.5,207.9c0.5,1.4,1,2.8,1.6,4.4
		c1.9-0.9,1.8-2.8,2.3-4.2c24.4-69.3,48.7-138.6,73-207.9c1.1-3.2,2.4-4.6,6.1-4.6c30.3,0.2,60.7,0.2,91,0c3.9,0,4.9,1,4.9,4.9
		c-0.1,85-0.1,170-0.2,255c0,4.7,1,6.1,5.9,6c63.8-0.2,127.7-0.1,191.5-0.1c2.3,0,4.7,0,7-0.2c18.8-1.7,27-10,28.5-28.8
		c0.4-4.5-0.1-9-1-13.4c-3.1-13.8-12.8-21.1-28.6-21.2c-27-0.2-54-0.1-81-0.1c-13.2,0-26.3-1.2-39.1-4.6
		c-30.7-8.2-50.2-27.6-58.1-58.4c-6.7-26-6.6-52.2,0.5-78.1c9-32.6,31.3-51.1,64-57.9c10.6-2.2,21.4-3,32.3-3
		c49.5,0,99,0.1,148.5-0.1c4,0,5.3,0.8,5.2,5.1c-0.3,19.7-0.2,39.3,0,59c0,4.1-0.9,5.2-5.1,5.2c-48.2-0.2-96.3-0.1-144.5-0.1
		c-1.5,0-3,0-4.5,0c-11.4,0.3-22.5,2.3-27.9,13.8c-6,12.9-6.2,26.3,1.5,38.7c5.9,9.5,16.1,11.2,26.4,11.2c26.3,0.2,52.7,0.1,79,0
		c13.2,0,26.3,1.1,39.1,4.5c30.6,8.3,50.2,27.7,58,58.5c6.5,25.9,6.6,51.9-0.5,77.6c-9.1,33.3-32,51.9-65.2,58.5
		c-10.7,2.1-21.5,2.9-32.3,2.9c-87.7,0-175.3,0-263,0.1c-5.1,0-5.9-1.6-5.8-6.2c0.1-69.1,0.1-138.3,0.1-207.4
		c-1.3-0.3-1.3,0.7-1.6,1.4C1359.6,340.5,1334.3,411.2,1308.9,481.9z"/>
</g>
<path class="st2" d="z"/>
</svg>
