<svg id="Capa_1" data-name="Capa 1" xmlns="http://www.w3.org/2000/svg" viewBox="0 0 231.23 231.23"><title>repairing-service_web</title><path d="M230.51,102.78c-0.37-3.25-4.16-5.69-7.43-5.69A25.53,25.53,0,0,1,205.6,52.66a6.43,6.43,0,0,0,.71-8.72A114.46,114.46,0,0,0,188,25.44a6.44,6.44,0,0,0-8.79.71c-6.89,7.63-19.27,10.47-28.84,6.48a25.68,25.68,0,0,1-15.62-25.1A6.42,6.42,0,0,0,129.07.77a115.38,115.38,0,0,0-26-.07,6.44,6.44,0,0,0-5.72,6.62A25.73,25.73,0,0,1,81.51,32c-9.45,3.86-21.74,1-28.62-6.52a6.44,6.44,0,0,0-8.72-.73,114.93,114.93,0,0,0-18.7,18.49A6.43,6.43,0,0,0,26.15,52a25.62,25.62,0,0,1,6.47,28.85c-4,9.5-13.86,15.63-25.16,15.63a6.29,6.29,0,0,0-6.68,5.68,115.9,115.9,0,0,0,0,26.29c0.37,3.26,4.27,5.69,7.58,5.69A25.36,25.36,0,0,1,32.1,150a25.72,25.72,0,0,1-6.47,28.59,6.42,6.42,0,0,0-.7,8.71,114.86,114.86,0,0,0,18.29,18.51,6.43,6.43,0,0,0,8.8-.7c6.92-7.65,19.3-10.48,28.82-6.48A25.64,25.64,0,0,1,96.49,223.7a6.42,6.42,0,0,0,5.67,6.76,115.12,115.12,0,0,0,26,.07,6.43,6.43,0,0,0,5.72-6.62,25.7,25.7,0,0,1,15.82-24.65c9.51-3.89,21.75-1,28.63,6.51a6.46,6.46,0,0,0,8.73.73A115.09,115.09,0,0,0,205.77,188a6.42,6.42,0,0,0-.69-8.79,25.62,25.62,0,0,1-6.48-28.84,25.88,25.88,0,0,1,23.65-15.67l1.43,0a6.44,6.44,0,0,0,6.77-5.67A115.39,115.39,0,0,0,230.51,102.78ZM115.62,182.27a66.65,66.65,0,1,1,57.23-32.48l-29.19-29.19A40.89,40.89,0,0,0,95.25,65.23,4.63,4.63,0,0,0,92,68.45a4.52,4.52,0,0,0,1.28,4.42s14.41,14.52,19.23,19.34a3,3,0,0,1,.43,2.14l0,0.32c-0.49,5.3-1.42,11.66-2.2,14.11l-0.31.3-0.32.33c-2.48.79-8.94,1.74-14.32,2.22v0l-0.24.06H95.33a3.08,3.08,0,0,1-2.22-.94c-5-5-18.86-18.76-18.86-18.76a4.71,4.71,0,0,0-3.36-1.5A4.57,4.57,0,0,0,66.58,94,40.89,40.89,0,0,0,122,142.28l29.5,29.5A66.32,66.32,0,0,1,115.62,182.27Z" transform="translate(0 0)"/></svg>